<svg xmlns="http://www.w3.org/2000/svg" viewBox="0 0 496.78 303.14"><defs><style>.cls-1{fill:#106934;}</style></defs><title>Panamonte logo</title><g id="Capa_2" data-name="Capa 2"><g id="Capa_1-2" data-name="Capa 1"><path class="cls-1" d="M212.78,172.5V133.84H209.5a71.62,71.62,0,0,1-44.23-14.75c-7.68-5.73-12.32-13-12.33-22.48,0-.51,0-1,.05-1.52A6.47,6.47,0,0,1,153.3,94c4.53-.07,9.18-.32,13.82-.19a69.79,69.79,0,0,1,24.12,4.64c8.58,3.44,15.4,8.75,20,16.39.23.37.5.71,1.07,1.53.09-1.11.19-1.77.2-2.44q.22-27.37.45-54.76c.08-7.71.58-15.43.34-23.12A81.12,81.12,0,0,0,211.22,21c-1.45-6.43-6.35-9.72-13.15-10.23-5.9-.43-11.84-.45-17.76-.44-2.2,0-2.9-.64-2.74-2.61a45,45,0,0,0,0-5.45c-.05-1.34.35-1.91,2-1.92,29.25-.1,58.51-.41,87.76-.33,14.11,0,28.25.66,42,3.89,15.8,3.7,29.16,10.91,38.19,24a56.57,56.57,0,0,1,9.34,26c1.33,11.31.69,22.51-2.91,33.45-5.68,17.29-18.43,28.24-36.15,34.62-11.59,4.17-23.7,6.05-36,7a319.27,319.27,0,0,1-40.92.19,8.71,8.71,0,0,0-1.18.12c-.05.77-.13,1.54-.13,2.31q0,35.69-.05,71.36a33.84,33.84,0,0,0,.71,7.79c1.9,8,8.18,11.59,16.1,13a104.23,104.23,0,0,0,15.1,1.35c7.94.21,15.9,0,24,0v9.76H161.28v-9.75c1.09,0,2.08,0,3.07,0,8.42-.14,16.85-.13,25.26-.5a41.82,41.82,0,0,0,9.58-1.78c8.11-2.32,12.53-7.69,13.26-15.47.47-5,.29-10,.53-15,.09-1.88-.75-2.24-2.59-2.31-15.11-.57-29.43-3.88-42.58-11A57,57,0,0,1,150,164.5a31.64,31.64,0,0,1-7.23-22.05c.1-1.92.72-2.79,3-2.77,13.26.11,26.3,1.29,38.6,6.41q18,7.5,26.65,24c.43.83.88,1.65,1.32,2.47Zm26.79-55.23c6.48,0,12.56.08,18.63,0,11.78-.19,23.54-.67,35-3.42,16.54-4,28.3-12.81,33.34-28.42A66.22,66.22,0,0,0,326,42.11c-4.89-13.94-14.9-22.82-30.24-26.06a145.39,145.39,0,0,0-20.07-2.73c-8.94-.62-17.92-.7-26.89-.82-5.45-.08-7.86,1.92-8.66,6.94a47.16,47.16,0,0,0-.55,7.6q0,43.65,0,87.28ZM191.85,5.08l0,.54H195c2.66,0,5.31-.14,8,0,9.72.46,16,5.74,16.37,14.72.59,15.25.79,30.53.77,45.79,0,21.1-.43,42.19-.67,63.28v2.31c-16.83-16.31-38.33-24.69-59-34.26a13.89,13.89,0,0,0,2.72,1.85c6.35,3.83,12.6,7.79,19.06,11.46A216.37,216.37,0,0,1,211.72,131c6.41,5.21,9.15,11,8.67,18.9-.63,10.59-.54,21.22-.77,31.83,0,.68-.11,1.36-.21,2.56-9.65-9.77-20.69-17-32.48-23.36s-23.79-11.69-36-16.9a21.48,21.48,0,0,0,3.24,2.16c12.07,7.08,24.28,14,36.17,21.31,9.33,5.76,17.42,13,25.21,20.44a14.62,14.62,0,0,1,4.76,11.46c-.18,5.59-.33,11.19-.88,16.76-.72,7.38-5,11.18-12.91,12-2.22.22-4.44.34-6.67.51a37.23,37.23,0,0,0,7.94.36c10.32-.73,16.2-6.09,16.86-15.41.32-4.5.55-9,.52-13.51-.1-16.66-.5-33.32-.47-50,.07-38.55.35-77.11.44-115.66a127.84,127.84,0,0,0-1-15.88c-.7-5.62-3.61-10-9.69-12C207,4.14,199.39,5.43,191.85,5.08Zm93.92,115.34.11.64c5.18-.8,10.42-1.33,15.51-2.45,17.41-3.84,31-12.49,38.33-28.16a62.24,62.24,0,0,0,2.45-48.31c-5.66-16.27-22.14-27.85-41.24-29,1.38.58,2.19.94,3,1.27,16.78,6.79,28.64,17.75,32.76,34.77,3.2,13.18,2.09,26.3-2.36,39.14-5.57,16-16.79,26.37-34.87,29.67Z"/><path class="cls-1" d="M358.58,269.58c-3,.88-3.69,2.75-3.66,5.33q.13,10.77,0,21.52c0,2.61.46,4.72,3.64,5.44H346.45c3.75-.83,3.57-3.62,3.56-6.39,0-6,0-11.89,0-17.83a4.35,4.35,0,0,0-.8-2.71l-12.85,27.62c-4.43-9.27-8.54-17.86-12.66-26.46l-.78.09q0,3.74,0,7.46c0,4.1,0,8.2,0,12.3.1,3.94.33,4.19,4,6h-9.85c4.23-.92,3.69-4.14,3.71-7,0-6.46-.05-12.92,0-19.37.05-2.83-.4-5.12-4-6a60.94,60.94,0,0,1,7.53.1A4.24,4.24,0,0,1,327,271.9c3.13,6.3,6.1,12.66,9.13,19,.49,1,1,2,1.79,3.54,1.1-2.25,2-4,2.85-5.86,2.53-5.54,5.12-11.06,7.52-16.65.76-1.78,1.73-2.57,3.82-2.39S356.42,269.58,358.58,269.58Z"/><path class="cls-1" d="M0,269.73H12.43c-4.07.8-3.83,3.77-3.8,6.64,0,2.64,0,5.27,0,8.26,4.94,0,9.47.08,14-.08a2.66,2.66,0,0,0,1.83-1.79,40,40,0,0,0-.09-8.89c-.26-1.52-1.93-2.84-2.87-4.13H33.25c-4,.81-3.83,3.72-3.81,6.61,0,6.56,0,13.11,0,19.66,0,2.72.13,5.21,3.71,5.93H21c3.44-.87,3.58-3.41,3.58-6.05,0-2.95,0-5.9,0-9.1H8.8c0,4-.18,8.06.13,12.08.08,1.07,1.69,2,2.54,3H.16c3.47-.74,3.58-3.3,3.58-5.94,0-6.65,0-13.31,0-20C3.77,273.19,3.66,270.58,0,269.73Z"/><path class="cls-1" d="M70.22,286c0,12.15-10.63,19.67-22.36,15.88-7.55-2.45-12.09-10.54-10.66-19,1.6-9.44,8.61-14.74,18.4-13.91C64.33,269.73,70.25,276.64,70.22,286Zm-4.76-.45c-1-3.31-1.6-7.19-3.44-10.4-3.69-6.43-13.14-6.5-16.71-.14a21.36,21.36,0,0,0-.12,21.5c1.76,3.29,4.93,4.88,8.8,4.8,4-.09,7.2-1.93,8.63-5.49C63.87,292.75,64.44,289.4,65.46,285.59Z"/><path class="cls-1" d="M362.89,285.85c-.06-12.13,10-19.62,21.77-16.21,8,2.33,12.83,10.78,11.15,19.58-1.78,9.33-8.75,14.29-18.82,13.39C368.62,301.87,362.93,295.11,362.89,285.85Zm28.29-.35c-1.09-3.33-1.66-7.3-3.59-10.56-3.69-6.21-13-6.14-16.53.1a21.47,21.47,0,0,0-.14,21.51c1.74,3.28,4.92,4.89,8.8,4.8s7.22-1.89,8.64-5.47C389.58,292.77,390.14,289.43,391.18,285.5Z"/><path class="cls-1" d="M267.59,269.74h9.74c-3.95,1.06-4.23,4-4.23,7.05q0,11.22,0,22.44a5.64,5.64,0,0,1-.75,3.25L250,275.63a23.44,23.44,0,0,0-.36,2.73c0,5.74,0,11.48,0,17.22,0,3.85.36,4.32,4.31,6.22H243.53c3.89-.85,4.16-3.72,4.17-6.68,0-6.36-.12-12.72.07-19.06.1-3.16-1.07-5.12-4.44-5.94,5.3-1.47,7.57-.82,10.72,3q7.11,8.59,14.24,17.18c.71.86,1.46,1.67,2.75,3.13,0-7.18.19-13.57-.16-19.93C270.8,272.16,268.69,270.94,267.59,269.74Z"/><path class="cls-1" d="M405.81,276.36c0,7.05-.17,14.1.14,21.14.07,1.53,1.92,3,2.85,4.33h-9.66c4.84-1.19,4.66-4.52,4.67-7.74,0-5.84-.13-11.68.07-17.51.11-3.24-.73-5.62-4.8-6.59,5.12-1.05,8.75-.51,11.73,3.7,4.1,5.77,9,11,13.52,16.52a8.08,8.08,0,0,0,3.07,2.45V288c0-3.79,0-7.58,0-11.37,0-3.1-.23-6.05-4.39-6.88h10.44c-4,1-4.22,4-4.22,7.19q0,11.22,0,22.43c0,1-.11,1.94-.21,3.76l-22.53-27Z"/><path class="cls-1" d="M476.72,286.12c0,4.14-.12,8.11.1,12.06a3.06,3.06,0,0,0,2.15,2.09c3.65.1,7.52.47,10.91-.5,2.56-.72,4.51-3.32,6.9-5.22-.64,2.31-1.33,4.76-2,7.33H468.14c3.39-.61,3.65-2.91,3.61-5.58-.09-7-.05-13.92,0-20.88,0-2.62,0-5.12-3.7-5.65h26v6.06c-1.42-5.53-6.09-4.59-10.21-4.61-7.12,0-7.12,0-7.12,6.57v6c8.33,1.66,11.63.71,14.53-4.36v11.27C488.26,285.37,488.16,285.34,476.72,286.12Z"/><path class="cls-1" d="M131,269.83v5.93c-1.37-5-5.5-4.57-9.43-4.56-8,0-8,0-8,7.37,0,5.69,0,5.69,6,5.68s6.33-.15,8.5-5.31v12.43c-2.6-8.89-9.33-3.89-14.47-6,0,4.84-.1,8.9.09,12.94a2.87,2.87,0,0,0,2,1.94,70.88,70.88,0,0,0,11.58-.57c1.53-.24,2.86-2,4.14-3.16.7-.65,1.13-1.57,2.32-2.1-.63,2.21-1.16,4.46-2,6.62-.18.49-1.3.95-2,1-8.24.06-16.48,0-24.92-.13,3.62-.66,3.82-3,3.78-5.74q-.14-10.61,0-21.21c0-2.59-.61-4.48-3.7-5.09Z"/><path class="cls-1" d="M189.3,288.07c0,2.85,0,5.5,0,8.14s.28,5.26,4,5.7H181.18c3.41-.94,3.35-3.6,3.35-6.21q0-10,0-19.95c0-2.61,0-5.21-4-5.66l.4-.75c5.87.28,11.79.2,17.6.92,5.63.7,8.22,3.78,8.19,8.3s-3.05,7.94-8.24,8.83C195.66,287.87,192.71,287.83,189.3,288.07Zm0-9.47h0a50.4,50.4,0,0,0,.07,5.5c.07.7.83,1.85,1.39,1.92,3.29.4,6.56.16,8.94-2.39,2.19-2.35,2.39-5.16,1.34-8-1.16-3.19-5.27-5.15-9.69-4.34-3.63.66-1.5,3.63-2,5.53A6.5,6.5,0,0,0,189.29,278.6Z"/><path class="cls-1" d="M239.66,301.9h-11.3c3.74-.88,3.6-2.73,2.68-4.83-.13-.28-.2-.58-.31-.87-1.93-4.75-1.93-4.75-7.34-4.75h-2.6c-6.32,0-6.27,0-8.29,5.57-.84,2.29-.8,4.05,2.19,4.85h-7.6a62.85,62.85,0,0,0,4.17-6.83c3.44-7.5,6.64-15.1,10-22.65.49-1.11,1-2.2,1.83-3.86.74,1.38,1.29,2.3,1.73,3.26,3.72,8.17,7.34,16.38,11.16,24.5A44.78,44.78,0,0,0,239.66,301.9Zm-24-12.4h12.18c-2-4.61-3.88-8.83-6.12-13.94Z"/><path class="cls-1" d="M296.45,268.29l9.15,20.12c1.32,2.92,2.51,5.89,4,8.72a41.53,41.53,0,0,0,3.33,4.68h-10.6c3.43-.56,2.86-2.67,2-4.87a11.1,11.1,0,0,1-.6-1.43c-.79-3.36-2.93-4.71-6.54-4.08a19.57,19.57,0,0,1-3.25,0c-6.07,0-6.07,0-8,5.42-1,2.8-.83,3.32,2,5h-7.57a48.22,48.22,0,0,0,3.83-6c3.63-8,7.06-16,10.58-24.06C295.15,270.94,295.62,270,296.45,268.29Zm-1,8-.8.15c-1.82,4.27-3.65,8.54-5.57,13h12.14Z"/><path class="cls-1" d="M94.25,302H81.6c4-.72,3.65-3.59,3.64-6.34,0-8,0-15.93,0-23.82-6.27-1.43-8.64-.34-11.86,5.89v-7.87h28.5c.18,2.43.36,4.83.56,7.57-1.7-2.06-2.77-4.4-4.63-5.33s-4.74-.67-7.62-1v14c0,3.79.08,7.58,0,11.37C90.07,299.34,90.86,301.38,94.25,302Z"/><path class="cls-1" d="M465.29,276.79c-3.4-5.34-5-6.1-12-5.13v5.63c0,6.24.05,12.49,0,18.73,0,2.71,0,5.25,3.7,5.9H444.75c4.23-.73,3.53-3.85,3.53-6.6,0-7.86,0-15.72,0-23.5-6.43-1.42-8.61-.37-11.79,5.82v-7.82h28.39C465,272.07,465.15,274.43,465.29,276.79Z"/><path class="cls-1" d="M136.7,269.63H149c-4.84,1.06-4,4.7-4.05,7.91,0,6.35.07,12.69,0,19-.05,2.74,1,4.05,4,3.85a19.1,19.1,0,0,1,2.27,0c5.7.25,11-.25,13.14-6.84l.91.74c-.65,2.25-1.21,4.53-2,6.72-.18.5-1.33.93-2,.94-8.12.06-16.23,0-24.67-.2,3.5-.59,3.67-3,3.69-5.38,0-7.07,0-14.13,0-21.19C140.18,272.74,139.72,270.54,136.7,269.63Z"/></g></g></svg>